<svg viewBox="0 0 200 200" xmlns="http://www.w3.org/2000/svg">
  <path fill="#FFB3CE" d="M24.9,-48.6C33.6,-38.2,42.9,-34.1,52.6,-27.1C62.3,-20.1,72.4,-10,68.5,-2.2C64.6,5.6,46.7,11.1,35.3,15.1C23.9,19.2,18.9,21.7,14.1,29C9.3,36.4,4.6,48.7,-2.9,53.7C-10.5,58.8,-21.1,56.8,-27,50C-32.9,43.3,-34.3,31.9,-44.6,22.8C-55,13.7,-74.3,6.9,-79.8,-3.2C-85.3,-13.2,-76.9,-26.4,-64.4,-31.7C-51.8,-37,-35.1,-34.5,-23.7,-43.4C-12.3,-52.2,-6.2,-72.4,1,-74.1C8.1,-75.8,16.2,-59,24.9,-48.6Z" transform="translate(100 100)" />
</svg>
